999
dxflib 2.0.0.7
  0
SECTION
  2
HEADER
  9
$ACADVER
  1
AC1015
  9
$HANDSEED
  5
FFFF
  0
ENDSEC
  9
$DIMASZ
 40
2.5
  9
$DIMGAP
 40
0.625
  9
$DIMEXO
 40
0.625
  9
$INSUNITS
 70
4
  9
$DIMTXT
 40
2.5
  9
$PLIMMAX
 10
210.0
 20
297.0
 30
0.0
  9
$PLIMMIN
 10
0.0
 20
0.0
 30
0.0
  9
$DIMEXE
 40
1.25
  0
ENDSEC
  0
SECTION
  2
TABLES
  0
TABLE
  2
VPORT
  5
8
100
AcDbSymbolTable
 70
1
  0
VPORT
  5
30
100
AcDbSymbolTableRecord
100
AcDbViewportTableRecord
  2
*Active
 70
0
 10
0.0
 20
0.0
 11
1.0
 21
1.0
 12
286.3055555555554861
 22
148.5
 13
0.0
 23
0.0
 14
10.0
 24
10.0
 15
10.0
 25
10.0
 16
0.0
 26
0.0
 36
1.0
 17
0.0
 27
0.0
 37
0.0
 40
297.0
 41
1.92798353909465
 42
50.0
 43
0.0
 44
0.0
 50
0.0
 51
0.0
 71
0
 72
100
 73
1
 74
3
 75
1
 76
1
 77
0
 78
0
281
0
 65
1
110
0.0
120
0.0
130
0.0
111
1.0
121
0.0
131
0.0
112
0.0
122
1.0
132
0.0
 79
0
146
0.0
  0
ENDTAB
  0
TABLE
  2
LTYPE
  5
5
100
AcDbSymbolTable
 70
3
  0
LTYPE
  5
14
100
AcDbSymbolTableRecord
100
AcDbLinetypeTableRecord
  2
ByBlock
 70
0
  3

 72
65
 73
0
 40
0.0
  0
LTYPE
  5
15
100
AcDbSymbolTableRecord
100
AcDbLinetypeTableRecord
  2
ByLayer
 70
0
  3

 72
65
 73
0
 40
0.0
  0
LTYPE
  5
16
100
AcDbSymbolTableRecord
100
AcDbLinetypeTableRecord
  2
CONTINUOUS
 70
0
  3
Solid line
 72
65
 73
0
 40
0.0
  0
LTYPE
  5
31
100
AcDbSymbolTableRecord
100
AcDbLinetypeTableRecord
  2
DOT
 70
0
  0
LTYPE
  5
32
100
AcDbSymbolTableRecord
100
AcDbLinetypeTableRecord
  2
DOT2
 70
0
  0
LTYPE
  5
33
100
AcDbSymbolTableRecord
100
AcDbLinetypeTableRecord
  2
DOTX2
 70
0
  0
LTYPE
  5
34
100
AcDbSymbolTableRecord
100
AcDbLinetypeTableRecord
  2
DASHED
 70
0
  0
LTYPE
  5
35
100
AcDbSymbolTableRecord
100
AcDbLinetypeTableRecord
  2
DASHED2
 70
0
  0
LTYPE
  5
36
100
AcDbSymbolTableRecord
100
AcDbLinetypeTableRecord
  2
DASHEDX2
 70
0
  0
LTYPE
  5
37
100
AcDbSymbolTableRecord
100
AcDbLinetypeTableRecord
  2
DASHDOT
 70
0
  0
LTYPE
  5
38
100
AcDbSymbolTableRecord
100
AcDbLinetypeTableRecord
  2
DASHDOT2
 70
0
  0
LTYPE
  5
39
100
AcDbSymbolTableRecord
100
AcDbLinetypeTableRecord
  2
DASHDOTX2
 70
0
  0
LTYPE
  5
3A
100
AcDbSymbolTableRecord
100
AcDbLinetypeTableRecord
  2
DIVIDE
 70
0
  0
LTYPE
  5
3B
100
AcDbSymbolTableRecord
100
AcDbLinetypeTableRecord
  2
DIVIDE2
 70
0
  0
LTYPE
  5
3C
100
AcDbSymbolTableRecord
100
AcDbLinetypeTableRecord
  2
DIVIDEX2
 70
0
  0
LTYPE
  5
3D
100
AcDbSymbolTableRecord
100
AcDbLinetypeTableRecord
  2
CENTER
 70
0
  0
LTYPE
  5
3E
100
AcDbSymbolTableRecord
100
AcDbLinetypeTableRecord
  2
CENTER2
 70
0
  0
LTYPE
  5
3F
100
AcDbSymbolTableRecord
100
AcDbLinetypeTableRecord
  2
CENTERX2
 70
0
  0
LTYPE
  5
40
100
AcDbSymbolTableRecord
100
AcDbLinetypeTableRecord
  2
BORDER
 70
0
  0
LTYPE
  5
41
100
AcDbSymbolTableRecord
100
AcDbLinetypeTableRecord
  2
BORDER2
 70
0
  0
LTYPE
  5
42
100
AcDbSymbolTableRecord
100
AcDbLinetypeTableRecord
  2
BORDERX2
 70
0
  0
ENDTAB
  0
TABLE
  2
LAYER
  5
2
100
AcDbSymbolTable
 70
3
  0
LAYER
  5
10
100
AcDbSymbolTableRecord
100
AcDbLayerTableRecord
  2
0
 70
0
 62
7
  6
CONTINUOUS
370
0
390
F
  0
LAYER
  5
43
100
AcDbSymbolTableRecord
100
AcDbLayerTableRecord
  2
Lager gezeichnet
 70
0
 62
7
  6
CONTINUOUS
370
-3
390
F
  0
LAYER
  5
44
100
AcDbSymbolTableRecord
100
AcDbLayerTableRecord
  2
Träger
 70
0
 62
7
  6
CONTINUOUS
370
40
390
F
  0
ENDTAB
  0
TABLE
  2
STYLE
  5
3
100
AcDbSymbolTable
 70
1
  0
STYLE
  5
11
100
AcDbSymbolTableRecord
100
AcDbTextStyleTableRecord
  2
Standard
 70
0
 40
0.0
 41
1.0
 50
0.0
 71
0
 42
2.5
  3
txt
  4

  0
ENDTAB
  0
TABLE
  2
VIEW
  5
6
100
AcDbSymbolTable
 70
0
  0
ENDTAB
  0
TABLE
  2
UCS
  5
7
100
AcDbSymbolTable
 70
0
  0
ENDTAB
  0
TABLE
  2
APPID
  5
9
100
AcDbSymbolTable
 70
1
  0
APPID
  5
12
100
AcDbSymbolTableRecord
100
AcDbRegAppTableRecord
  2
ACAD
 70
0
  0
ENDTAB
  0
TABLE
  2
DIMSTYLE
  5
A
100
AcDbSymbolTable
 70
1
100
AcDbDimStyleTable
 71
0
  0
DIMSTYLE
105
27
100
AcDbSymbolTableRecord
100
AcDbDimStyleTableRecord
  2
Standard
 70
0
  0
ENDTAB
  0
TABLE
  2
BLOCK_RECORD
  5
1
100
AcDbSymbolTable
 70
1
  0
BLOCK_RECORD
  5
1F
100
AcDbSymbolTableRecord
100
AcDbBlockTableRecord
  2
*Model_Space
340
22
  0
BLOCK_RECORD
  5
1B
100
AcDbSymbolTableRecord
100
AcDbBlockTableRecord
  2
*Paper_Space
340
1E
  0
BLOCK_RECORD
  5
23
100
AcDbSymbolTableRecord
100
AcDbBlockTableRecord
  2
*Paper_Space0
340
26
  0
ENDTAB
  0
ENDSEC
  0
SECTION
  2
BLOCKS
  0
BLOCK
  5
20
100
AcDbEntity
  8
0
100
AcDbBlockBegin
  2
*Model_Space
 70
0
 10
0.0
 20
0.0
 30
0.0
  3
*Model_Space
  1

  0
ENDBLK
  5
21
100
AcDbEntity
  8
0
100
AcDbBlockEnd
  0
BLOCK
  5
1C
100
AcDbEntity
 67
1
  8
0
100
AcDbBlockBegin
  2
*Paper_Space
 70
0
 10
0.0
 20
0.0
 30
0.0
  3
*Paper_Space
  1

  0
ENDBLK
  5
1D
100
AcDbEntity
 67
1
  8
0
100
AcDbBlockEnd
  0
BLOCK
  5
24
100
AcDbEntity
  8
0
100
AcDbBlockBegin
  2
*Paper_Space0
 70
0
 10
0.0
 20
0.0
 30
0.0
  3
*Paper_Space0
  1

  0
ENDBLK
  5
25
100
AcDbEntity
  8
0
100
AcDbBlockEnd
  0
ENDSEC
  0
SECTION
  2
ENTITIES
  0
HATCH
  5
45
  8
Lager gezeichnet
 62
7
370
-3
  6
CONTINUOUS
100
AcDbEntity
100
AcDbHatch
 10
0.0
 20
0.0
 30
0.0
210
0.0
220
0.0
230
1.0
  2
SOLID
 70
1
 71
0
 91
1
 92
1
 93
0
 97
0
 75
0
 76
1
 98
0
  0
HATCH
  5
46
  8
Lager gezeichnet
 62
7
370
-3
  6
CONTINUOUS
100
AcDbEntity
100
AcDbHatch
 10
0.0
 20
0.0
 30
0.0
210
0.0
220
0.0
230
1.0
  2
SOLID
 70
1
 71
0
 91
1
 92
1
 93
0
 97
0
 75
0
 76
1
 98
0
  0
HATCH
  5
47
  8
Lager gezeichnet
 62
7
370
-3
  6
CONTINUOUS
100
AcDbEntity
100
AcDbHatch
 10
0.0
 20
0.0
 30
0.0
210
0.0
220
0.0
230
1.0
  2
SOLID
 70
1
 71
0
 91
1
 92
1
 93
0
 97
0
 75
0
 76
1
 98
0
  0
LINE
  5
48
100
AcDbEntity
100
AcDbLine
  8
Träger
 62
7
370
-3
  6
CONTINUOUS
 10
-1.02
 20
0.12
 30
0.0
 11
-0.9599999999999999
 21
1.5099999999999989
 31
0.0
  0
LINE
  5
49
100
AcDbEntity
100
AcDbLine
  8
Träger
 62
7
370
-3
  6
CONTINUOUS
 10
-1.02
 20
0.12
 30
0.0
 11
-5.0710834300597583
 21
0.12
 31
0.0
  0
LINE
  5
4A
100
AcDbEntity
100
AcDbLine
  8
Träger
 62
7
370
-3
  6
CONTINUOUS
 10
-1.02
 20
0.12
 30
0.0
 11
-1.8700000000000001
 21
0.2
 31
0.0
  0
LINE
  5
4B
100
AcDbEntity
100
AcDbLine
  8
Träger
 62
7
370
-3
  6
CONTINUOUS
 10
-1.8700000000000001
 20
0.2
 30
0.0
 11
-1.8200000000000001
 21
1.45
 31
0.0
  0
LINE
  5
4C
100
AcDbEntity
100
AcDbLine
  8
Träger
 62
7
370
-3
  6
CONTINUOUS
 10
-1.8200000000000001
 20
1.45
 30
0.0
 11
-0.9599999999999999
 21
1.5099999999999989
 31
0.0
  0
LINE
  5
4D
100
AcDbEntity
100
AcDbLine
  8
Träger
 62
7
370
-3
  6
CONTINUOUS
 10
-1.8200000000000001
 20
1.45
 30
0.0
 11
-5.0710834300597583
 21
1.45
 31
0.0
  0
LINE
  5
4E
100
AcDbEntity
100
AcDbLine
  8
Träger
 62
7
370
-3
  6
CONTINUOUS
 10
-1.8700000000000001
 20
0.2
 30
0.0
 11
-5.0710834300597583
 21
0.2
 31
0.0
  0
LINE
  5
4F
100
AcDbEntity
100
AcDbLine
  8
Träger
 62
7
370
-3
  6
CONTINUOUS
 10
-5.0710834300597609
 20
1.649999999999999
 30
0.0
 11
-0.4847838756335286
 21
1.649999999999999
 31
0.0
  0
CIRCLE
  5
50
100
AcDbEntity
100
AcDbCircle
  8
Träger
 62
7
370
-3
  6
CONTINUOUS
 10
-0.4847838756335276
 20
1.25
 30
0.0
 40
0.04
  0
LWPOLYLINE
  5
51
  8
Lager gezeichnet
 62
7
370
-3
  6
CONTINUOUS
100
AcDbEntity
100
AcDbPolyline
 90
7
 70
1
 10
-4.8999999999999986
 20
1.7699999999999989
 10
-4.4999999999999991
 20
1.7699999999999989
 10
-4.4999999999999991
 20
1.829999999999999
 10
-4.8999999999999986
 20
1.829999999999999
 10
-4.8999999999999986
 20
1.7699999999999989
 10
-4.8999999999999986
 20
1.7699999999999989
 10
-4.8999999999999986
 20
1.7699999999999989
  0
LINE
  5
52
100
AcDbEntity
100
AcDbLine
  8
Lager gezeichnet
 62
7
370
-3
  6
CONTINUOUS
 10
0.3200000000000003
 20
0.8095081967213115
 30
0.0
 11
0.2359120736742284
 21
0.6626842260505299
 31
0.0
  0
LINE
  5
53
100
AcDbEntity
100
AcDbLine
  8
Lager gezeichnet
 62
7
370
-3
  6
CONTINUOUS
 10
0.2359120736742284
 20
0.6626842260505299
 30
0.0
 11
0.3200000000000003
 21
0.6626842260505299
 31
0.0
  0
LINE
  5
54
100
AcDbEntity
100
AcDbLine
  8
Lager gezeichnet
 62
7
370
-3
  6
CONTINUOUS
 10
0.3200000000000003
 20
0.8095081967213115
 30
0.0
 11
0.4040879263257722
 21
0.6626842260505299
 31
0.0
  0
LINE
  5
55
100
AcDbEntity
100
AcDbLine
  8
Lager gezeichnet
 62
7
370
-3
  6
CONTINUOUS
 10
0.4040879263257722
 20
0.6626842260505299
 30
0.0
 11
0.3200000000000003
 21
0.6626842260505299
 31
0.0
  0
LWPOLYLINE
  5
56
  8
Lager gezeichnet
 62
7
370
-3
  6
CONTINUOUS
100
AcDbEntity
100
AcDbPolyline
 90
2
 70
0
 10
-4.6999999999999993
 20
1.829999999999999
 10
-4.6999999999999993
 20
2.2309439726224478
  0
LWPOLYLINE
  5
57
  8
Lager gezeichnet
 62
7
370
-3
  6
CONTINUOUS
100
AcDbEntity
100
AcDbPolyline
 90
2
 70
0
 10
-4.6999999999999993
 20
1.829999999999999
 10
-4.6413177307707443
 20
1.9216332201498141
  0
LWPOLYLINE
  5
58
  8
Lager gezeichnet
 62
7
370
-3
  6
CONTINUOUS
100
AcDbEntity
100
AcDbPolyline
 90
2
 70
0
 10
-4.6999999999999993
 20
1.829999999999999
 10
-4.7586822692292543
 20
1.9216332201498141
  0
LWPOLYLINE
  5
59
  8
Träger
 62
7
370
-3
  6
CONTINUOUS
100
AcDbEntity
100
AcDbPolyline
 90
2
 70
0
 10
-0.4847838756335286
 20
1.77
 10
-5.0710834300597583
 20
1.77
  0
LWPOLYLINE
  5
5A
  8
Träger
 62
7
370
-3
  6
CONTINUOUS
100
AcDbEntity
100
AcDbPolyline
 90
2
 70
0
 10
-0.4847838756335286
 20
1.649999999999999
 10
-0.4847838756335286
 20
1.77
  0
LWPOLYLINE
  5
5B
  8
Träger
 62
7
370
-3
  6
CONTINUOUS
100
AcDbEntity
100
AcDbPolyline
 90
2
 70
0
 10
0.61
 20
0.8
 10
0.6400000000000001
 20
1.649999999999999
  0
LWPOLYLINE
  5
5C
  8
Träger
 62
7
370
-3
  6
CONTINUOUS
100
AcDbEntity
100
AcDbPolyline
 90
2
 70
0
 10
0.0
 20
0.82
 10
0.61
 20
0.8
  0
LWPOLYLINE
  5
5D
  8
Träger
 62
7
370
-3
  6
CONTINUOUS
100
AcDbEntity
100
AcDbPolyline
 90
2
 70
0
 10
0.0
 20
0.82
 10
-0.03
 20
0.0
  0
LWPOLYLINE
  5
5E
  8
Träger
 62
7
370
-3
  6
CONTINUOUS
100
AcDbEntity
100
AcDbPolyline
 90
2
 70
0
 10
-0.03
 20
0.0
 10
-5.0710834300597583
 20
0.0
  0
LWPOLYLINE
  5
5F
  8
Träger
 62
7
370
-3
  6
CONTINUOUS
100
AcDbEntity
100
AcDbPolyline
 90
2
 70
0
 10
-0.4847838756335286
 20
1.649999999999999
 10
0.6399999999999997
 20
1.649999999999999
  0
LWPOLYLINE
  5
60
  8
Träger
 62
7
370
-3
  6
CONTINUOUS
100
AcDbEntity
100
AcDbPolyline
 90
2
 70
0
 10
-5.0710834300597583
 20
1.77
 10
-5.0710834300597591
 20
0.9423828025106001
  0
LWPOLYLINE
  5
61
  8
Träger
 62
7
370
-3
  6
CONTINUOUS
100
AcDbEntity
100
AcDbPolyline
 90
2
 70
0
 10
-5.1253498257756291
 20
0.9122473047233796
 10
-5.0710834300597583
 20
0.9423828025106004
  0
LWPOLYLINE
  5
62
  8
Träger
 62
7
370
-3
  6
CONTINUOUS
100
AcDbEntity
100
AcDbPolyline
 90
2
 70
0
 10
-5.0710834300597583
 20
0.8850000000000003
 10
-5.0168170343438874
 20
0.8577526952766209
  0
LWPOLYLINE
  5
63
  8
Träger
 62
7
370
-3
  6
CONTINUOUS
100
AcDbEntity
100
AcDbPolyline
 90
2
 70
0
 10
-5.0710834300597583
 20
0.8850000000000003
 10
-5.1253498257756291
 20
0.9122473047233796
  0
LWPOLYLINE
  5
64
  8
Träger
 62
7
370
-3
  6
CONTINUOUS
100
AcDbEntity
100
AcDbPolyline
 90
2
 70
0
 10
-5.0710834300597591
 20
0.8276171974894001
 10
-5.0710834300597583
 20
0.0
  0
LWPOLYLINE
  5
65
  8
Träger
 62
7
370
-3
  6
CONTINUOUS
100
AcDbEntity
100
AcDbPolyline
 90
2
 70
0
 10
-5.0168170343438874
 20
0.8577526952766209
 10
-5.0710834300597583
 20
0.8276171974894001
  0
LINE
  5
66
100
AcDbEntity
100
AcDbLine
  8
Träger
 62
7
370
-3
  6
CONTINUOUS
 10
-0.9599999999999999
 20
1.5099999999999989
 30
0.0
 11
-5.0710834300597583
 21
1.5099999999999989
 31
0.0
  0
ENDSEC
  0
SECTION
  2
OBJECTS
  0
DICTIONARY
  5
C
100
AcDbDictionary
280
0
281
1
  3
ACAD_GROUP
350
D
  3
ACAD_LAYOUT
350
1A
  3
ACAD_MLINESTYLE
350
17
  3
ACAD_PLOTSETTINGS
350
19
  3
ACAD_PLOTSTYLENAME
350
E
  3
AcDbVariableDictionary
350
67
  0
DICTIONARY
  5
D
100
AcDbDictionary
280
0
281
1
  0
ACDBDICTIONARYWDFLT
  5
E
100
AcDbDictionary
281
1
  3
Normal
350
F
100
AcDbDictionaryWithDefault
340
F
  0
ACDBPLACEHOLDER
  5
F
  0
DICTIONARY
  5
17
100
AcDbDictionary
280
0
281
1
  3
Standard
350
18
  0
MLINESTYLE
  5
18
100
AcDbMlineStyle
  2
STANDARD
 70
0
  3

 62
256
 51
90.0
 52
90.0
 71
2
 49
0.5
 62
256
  6
BYLAYER
 49
-0.5
 62
256
  6
BYLAYER
  0
DICTIONARY
  5
19
100
AcDbDictionary
280
0
281
1
  0
DICTIONARY
  5
1A
100
AcDbDictionary
281
1
  3
Layout1
350
1E
  3
Layout2
350
26
  3
Model
350
22
  0
LAYOUT
  5
1E
100
AcDbPlotSettings
  1

  2
C:\Program Files\AutoCAD 2002\plotters\DWF ePlot (optimized for plotting).pc3
  4

  6

 40
0.0
 41
0.0
 42
0.0
 43
0.0
 44
0.0
 45
0.0
 46
0.0
 47
0.0
 48
0.0
 49
0.0
140
0.0
141
0.0
142
1.0
143
1.0
 70
688
 72
0
 73
0
 74
5
  7

 75
16
147
1.0
148
0.0
149
0.0
100
AcDbLayout
  1
Layout1
 70
1
 71
1
 10
0.0
 20
0.0
 11
420.0
 21
297.0
 12
0.0
 22
0.0
 32
0.0
 14
100000000000000000000.0
 24
100000000000000000000.0
 34
100000000000000000000.0
 15
-100000000000000000000.0
 25
-100000000000000000000.0
 35
-100000000000000000000.0
146
0.0
 13
0.0
 23
0.0
 33
0.0
 16
1.0
 26
0.0
 36
0.0
 17
0.0
 27
1.0
 37
0.0
 76
0
330
1B
  0
LAYOUT
  5
22
100
AcDbPlotSettings
  1

  2
C:\Program Files\AutoCAD 2002\plotters\DWF ePlot (optimized for plotting).pc3
  4

  6

 40
0.0
 41
0.0
 42
0.0
 43
0.0
 44
0.0
 45
0.0
 46
0.0
 47
0.0
 48
0.0
 49
0.0
140
0.0
141
0.0
142
1.0
143
1.0
 70
1712
 72
0
 73
0
 74
0
  7

 75
0
147
1.0
148
0.0
149
0.0
100
AcDbLayout
  1
Model
 70
1
 71
0
 10
0.0
 20
0.0
 11
12.0
 21
9.0
 12
0.0
 22
0.0
 32
0.0
 14
0.0
 24
0.0
 34
0.0
 15
0.0
 25
0.0
 35
0.0
146
0.0
 13
0.0
 23
0.0
 33
0.0
 16
1.0
 26
0.0
 36
0.0
 17
0.0
 27
1.0
 37
0.0
 76
0
330
1F
  0
LAYOUT
  5
26
100
AcDbPlotSettings
  1

  2
C:\Program Files\AutoCAD 2002\plotters\DWF ePlot (optimized for plotting).pc3
  4

  6

 40
0.0
 41
0.0
 42
0.0
 43
0.0
 44
0.0
 45
0.0
 46
0.0
 47
0.0
 48
0.0
 49
0.0
140
0.0
141
0.0
142
1.0
143
1.0
 70
688
 72
0
 73
0
 74
5
  7

 75
16
147
1.0
148
0.0
149
0.0
100
AcDbLayout
  1
Layout2
 70
1
 71
2
 10
0.0
 20
0.0
 11
12.0
 21
9.0
 12
0.0
 22
0.0
 32
0.0
 14
0.0
 24
0.0
 34
0.0
 15
0.0
 25
0.0
 35
0.0
146
0.0
 13
0.0
 23
0.0
 33
0.0
 16
1.0
 26
0.0
 36
0.0
 17
0.0
 27
1.0
 37
0.0
 76
0
330
23
  0
DICTIONARY
  5
67
100
AcDbDictionary
281
1
  3
DIMASSOC
350
69
  3
HIDETEXT
350
68
  0
DICTIONARYVAR
  5
68
100
DictionaryVariables
280
0
  1
2
  0
DICTIONARYVAR
  5
69
100
DictionaryVariables
280
0
  1
1
  0
ENDSEC
  0
EOF
