999
dxflib 2.0.0.7
  0
SECTION
  2
HEADER
  9
$ACADVER
  1
AC1015
  9
$HANDSEED
  5
FFFF
  0
ENDSEC
  9
$DIMASZ
 40
2.5
  9
$DIMGAP
 40
0.625
  9
$DIMEXO
 40
0.625
  9
$INSUNITS
 70
4
  9
$DIMTXT
 40
2.5
  9
$PLIMMAX
 10
210.0
 20
297.0
 30
0.0
  9
$PLIMMIN
 10
0.0
 20
0.0
 30
0.0
  9
$DIMEXE
 40
1.25
  0
ENDSEC
  0
SECTION
  2
TABLES
  0
TABLE
  2
VPORT
  5
8
100
AcDbSymbolTable
 70
1
  0
VPORT
  5
30
100
AcDbSymbolTableRecord
100
AcDbViewportTableRecord
  2
*Active
 70
0
 10
0.0
 20
0.0
 11
1.0
 21
1.0
 12
286.3055555555554861
 22
148.5
 13
0.0
 23
0.0
 14
10.0
 24
10.0
 15
10.0
 25
10.0
 16
0.0
 26
0.0
 36
1.0
 17
0.0
 27
0.0
 37
0.0
 40
297.0
 41
1.92798353909465
 42
50.0
 43
0.0
 44
0.0
 50
0.0
 51
0.0
 71
0
 72
100
 73
1
 74
3
 75
1
 76
1
 77
0
 78
0
281
0
 65
1
110
0.0
120
0.0
130
0.0
111
1.0
121
0.0
131
0.0
112
0.0
122
1.0
132
0.0
 79
0
146
0.0
  0
ENDTAB
  0
TABLE
  2
LTYPE
  5
5
100
AcDbSymbolTable
 70
3
  0
LTYPE
  5
14
100
AcDbSymbolTableRecord
100
AcDbLinetypeTableRecord
  2
ByBlock
 70
0
  3

 72
65
 73
0
 40
0.0
  0
LTYPE
  5
15
100
AcDbSymbolTableRecord
100
AcDbLinetypeTableRecord
  2
ByLayer
 70
0
  3

 72
65
 73
0
 40
0.0
  0
LTYPE
  5
16
100
AcDbSymbolTableRecord
100
AcDbLinetypeTableRecord
  2
CONTINUOUS
 70
0
  3
Solid line
 72
65
 73
0
 40
0.0
  0
LTYPE
  5
31
100
AcDbSymbolTableRecord
100
AcDbLinetypeTableRecord
  2
DOT
 70
0
  0
LTYPE
  5
32
100
AcDbSymbolTableRecord
100
AcDbLinetypeTableRecord
  2
DOT2
 70
0
  0
LTYPE
  5
33
100
AcDbSymbolTableRecord
100
AcDbLinetypeTableRecord
  2
DOTX2
 70
0
  0
LTYPE
  5
34
100
AcDbSymbolTableRecord
100
AcDbLinetypeTableRecord
  2
DASHED
 70
0
  0
LTYPE
  5
35
100
AcDbSymbolTableRecord
100
AcDbLinetypeTableRecord
  2
DASHED2
 70
0
  0
LTYPE
  5
36
100
AcDbSymbolTableRecord
100
AcDbLinetypeTableRecord
  2
DASHEDX2
 70
0
  0
LTYPE
  5
37
100
AcDbSymbolTableRecord
100
AcDbLinetypeTableRecord
  2
DASHDOT
 70
0
  0
LTYPE
  5
38
100
AcDbSymbolTableRecord
100
AcDbLinetypeTableRecord
  2
DASHDOT2
 70
0
  0
LTYPE
  5
39
100
AcDbSymbolTableRecord
100
AcDbLinetypeTableRecord
  2
DASHDOTX2
 70
0
  0
LTYPE
  5
3A
100
AcDbSymbolTableRecord
100
AcDbLinetypeTableRecord
  2
DIVIDE
 70
0
  0
LTYPE
  5
3B
100
AcDbSymbolTableRecord
100
AcDbLinetypeTableRecord
  2
DIVIDE2
 70
0
  0
LTYPE
  5
3C
100
AcDbSymbolTableRecord
100
AcDbLinetypeTableRecord
  2
DIVIDEX2
 70
0
  0
LTYPE
  5
3D
100
AcDbSymbolTableRecord
100
AcDbLinetypeTableRecord
  2
CENTER
 70
0
  0
LTYPE
  5
3E
100
AcDbSymbolTableRecord
100
AcDbLinetypeTableRecord
  2
CENTER2
 70
0
  0
LTYPE
  5
3F
100
AcDbSymbolTableRecord
100
AcDbLinetypeTableRecord
  2
CENTERX2
 70
0
  0
LTYPE
  5
40
100
AcDbSymbolTableRecord
100
AcDbLinetypeTableRecord
  2
BORDER
 70
0
  0
LTYPE
  5
41
100
AcDbSymbolTableRecord
100
AcDbLinetypeTableRecord
  2
BORDER2
 70
0
  0
LTYPE
  5
42
100
AcDbSymbolTableRecord
100
AcDbLinetypeTableRecord
  2
BORDERX2
 70
0
  0
ENDTAB
  0
TABLE
  2
LAYER
  5
2
100
AcDbSymbolTable
 70
1
  0
LAYER
  5
10
100
AcDbSymbolTableRecord
100
AcDbLayerTableRecord
  2
0
 70
0
 62
7
  6
CONTINUOUS
370
0
390
F
  0
ENDTAB
  0
TABLE
  2
STYLE
  5
3
100
AcDbSymbolTable
 70
1
  0
STYLE
  5
11
100
AcDbSymbolTableRecord
100
AcDbTextStyleTableRecord
  2
Standard
 70
0
 40
0.0
 41
1.0
 50
0.0
 71
0
 42
2.5
  3
txt
  4

  0
ENDTAB
  0
TABLE
  2
VIEW
  5
6
100
AcDbSymbolTable
 70
0
  0
ENDTAB
  0
TABLE
  2
UCS
  5
7
100
AcDbSymbolTable
 70
0
  0
ENDTAB
  0
TABLE
  2
APPID
  5
9
100
AcDbSymbolTable
 70
1
  0
APPID
  5
12
100
AcDbSymbolTableRecord
100
AcDbRegAppTableRecord
  2
ACAD
 70
0
  0
ENDTAB
  0
TABLE
  2
DIMSTYLE
  5
A
100
AcDbSymbolTable
 70
1
100
AcDbDimStyleTable
 71
0
  0
DIMSTYLE
105
27
100
AcDbSymbolTableRecord
100
AcDbDimStyleTableRecord
  2
Standard
 70
0
  0
ENDTAB
  0
TABLE
  2
BLOCK_RECORD
  5
1
100
AcDbSymbolTable
 70
1
  0
BLOCK_RECORD
  5
1F
100
AcDbSymbolTableRecord
100
AcDbBlockTableRecord
  2
*Model_Space
340
22
  0
BLOCK_RECORD
  5
1B
100
AcDbSymbolTableRecord
100
AcDbBlockTableRecord
  2
*Paper_Space
340
1E
  0
BLOCK_RECORD
  5
23
100
AcDbSymbolTableRecord
100
AcDbBlockTableRecord
  2
*Paper_Space0
340
26
  0
ENDTAB
  0
ENDSEC
  0
SECTION
  2
BLOCKS
  0
BLOCK
  5
20
100
AcDbEntity
  8
0
100
AcDbBlockBegin
  2
*Model_Space
 70
0
 10
0.0
 20
0.0
 30
0.0
  3
*Model_Space
  1

  0
ENDBLK
  5
21
100
AcDbEntity
  8
0
100
AcDbBlockEnd
  0
BLOCK
  5
1C
100
AcDbEntity
 67
1
  8
0
100
AcDbBlockBegin
  2
*Paper_Space
 70
0
 10
0.0
 20
0.0
 30
0.0
  3
*Paper_Space
  1

  0
ENDBLK
  5
1D
100
AcDbEntity
 67
1
  8
0
100
AcDbBlockEnd
  0
BLOCK
  5
24
100
AcDbEntity
  8
0
100
AcDbBlockBegin
  2
*Paper_Space0
 70
0
 10
0.0
 20
0.0
 30
0.0
  3
*Paper_Space0
  1

  0
ENDBLK
  5
25
100
AcDbEntity
  8
0
100
AcDbBlockEnd
  0
ENDSEC
  0
SECTION
  2
ENTITIES
  0
LINE
  5
43
100
AcDbEntity
100
AcDbLine
  8
0
 62
256
370
-1
  6
ByLayer
 10
-0.5
 20
-6.2000000000000002
 30
0.0
 11
13.5
 21
-6.2000000000000002
 31
0.0
  0
LINE
  5
44
100
AcDbEntity
100
AcDbLine
  8
0
 62
256
370
-1
  6
ByLayer
 10
13.5
 20
-6.2000000000000002
 30
0.0
 11
13.5
 21
-1.8
 31
0.0
  0
LINE
  5
45
100
AcDbEntity
100
AcDbLine
  8
0
 62
256
370
-1
  6
ByLayer
 10
13.5
 20
-1.8
 30
0.0
 11
-0.5
 21
-1.8
 31
0.0
  0
LINE
  5
46
100
AcDbEntity
100
AcDbLine
  8
0
 62
256
370
-1
  6
ByLayer
 10
-0.5
 20
-1.8
 30
0.0
 11
-0.5
 21
-6.2000000000000002
 31
0.0
  0
LWPOLYLINE
  5
47
  8
0
 62
256
370
-1
  6
ByLayer
100
AcDbEntity
100
AcDbPolyline
 90
85
 70
0
 10
13.5
 20
-6.2000000000000002
 10
13.5
 20
-6.2000000000000002
 10
13.5
 20
-6.2000000000000002
 10
13.5
 20
-6.2000000000000002
 10
13.5
 20
-6.2000000000000002
 10
13.5
 20
-6.2000000000000002
 10
13.5
 20
-6.2000000000000002
 10
13.5
 20
-6.2000000000000002
 10
13.5
 20
-6.2000000000000002
 10
13.5
 20
-6.2000000000000002
 10
13.5
 20
-6.2000000000000002
 10
13.5
 20
-6.2000000000000002
 10
13.5
 20
-6.2000000000000002
 10
13.5
 20
-6.2000000000000002
 10
13.5
 20
-6.2000000000000002
 10
13.5
 20
-6.2000000000000002
 10
13.5
 20
-6.2000000000000002
 10
13.5
 20
-6.2000000000000002
 10
13.5
 20
-6.2000000000000002
 10
13.5
 20
-6.2000000000000002
 10
13.5
 20
-6.2000000000000002
 10
13.5
 20
-6.2000000000000002
 10
13.5
 20
-6.2000000000000002
 10
13.5
 20
-6.2000000000000002
 10
13.5
 20
-6.2000000000000002
 10
13.5
 20
-6.2000000000000002
 10
13.5
 20
-6.2000000000000002
 10
13.5
 20
-6.2000000000000002
 10
13.5
 20
-6.2000000000000002
 10
13.5
 20
-6.2000000000000002
 10
13.5
 20
-6.2000000000000002
 10
13.5
 20
-6.2000000000000002
 10
13.5
 20
-6.2000000000000002
 10
13.5
 20
-6.2000000000000002
 10
13.5
 20
-6.2000000000000002
 10
13.5
 20
-6.2000000000000002
 10
13.5
 20
-6.2000000000000002
 10
13.5
 20
-6.2000000000000002
 10
13.5
 20
-6.2000000000000002
 10
13.5
 20
-6.2000000000000002
 10
13.5
 20
-6.2000000000000002
 10
13.5
 20
-6.2000000000000002
 10
13.5
 20
-6.2000000000000002
 10
13.5
 20
-6.2000000000000002
 10
13.5
 20
-6.2000000000000002
 10
13.5
 20
-6.2000000000000002
 10
13.5
 20
-6.2000000000000002
 10
13.5
 20
-6.2000000000000002
 10
13.5
 20
-6.2000000000000002
 10
13.5
 20
-6.2000000000000002
 10
13.5
 20
-6.2000000000000002
 10
13.5
 20
-6.2000000000000002
 10
13.5
 20
-6.2000000000000002
 10
13.5
 20
-6.2000000000000002
 10
13.5
 20
-6.2000000000000002
 10
13.5
 20
-6.2000000000000002
 10
13.5
 20
-6.2000000000000002
 10
13.5
 20
-6.2000000000000002
 10
13.5
 20
-6.2000000000000002
 10
13.5
 20
-6.2000000000000002
 10
13.5
 20
-6.2000000000000002
 10
13.5
 20
-6.2000000000000002
 10
13.5
 20
-6.2000000000000002
 10
13.5
 20
-6.2000000000000002
 10
13.5
 20
-6.2000000000000002
 10
13.5
 20
-6.2000000000000002
 10
13.5
 20
-6.2000000000000002
 10
13.5
 20
-6.2000000000000002
 10
13.5
 20
-6.2000000000000002
 10
13.5
 20
-6.2000000000000002
 10
13.5
 20
-6.2000000000000002
 10
13.5
 20
-6.2000000000000002
 10
13.5
 20
-6.2000000000000002
 10
13.5
 20
-6.2000000000000002
 10
13.5
 20
-6.2000000000000002
 10
13.5
 20
-6.2000000000000002
 10
13.5
 20
-6.2000000000000002
 10
13.5
 20
-6.2000000000000002
 10
13.5
 20
-6.2000000000000002
 10
13.5
 20
-6.2000000000000002
 10
13.5
 20
-6.2000000000000002
 10
13.5
 20
-6.2000000000000002
 10
13.5
 20
-6.2000000000000002
 10
13.5
 20
-6.2000000000000002
 10
13.5
 20
-6.2000000000000002
  0
LWPOLYLINE
  5
48
  8
0
 62
256
370
-1
  6
ByLayer
100
AcDbEntity
100
AcDbPolyline
 90
7
 70
0
 10
13.5
 20
-6.2000000000000002
 10
13.5
 20
-6.2000000000000002
 10
13.5
 20
-6.2000000000000002
 10
13.5
 20
-6.2000000000000002
 10
13.5
 20
-6.2000000000000002
 10
13.5
 20
-6.2000000000000002
 10
13.5
 20
-6.2000000000000002
  0
LWPOLYLINE
  5
49
  8
0
 62
256
370
-1
  6
ByLayer
100
AcDbEntity
100
AcDbPolyline
 90
159
 70
0
 10
12.6957383548067391
 20
-6.3686818632309219
 10
12.7096134786917752
 20
-6.3686818632309219
 10
12.7234886025768095
 20
-6.3686818632309219
 10
12.7373637264618438
 20
-6.3686818632309219
 10
12.7512388503468781
 20
-6.3686818632309219
 10
12.7651139742319124
 20
-6.3686818632309219
 10
12.7789890981169485
 20
-6.3686818632309219
 10
12.7928642220019828
 20
-6.3686818632309219
 10
12.8067393458870171
 20
-6.3686818632309219
 10
12.8206144697720514
 20
-6.3686818632309219
 10
12.8344895936570857
 20
-6.3686818632309219
 10
12.8483647175421218
 20
-6.3686818632309219
 10
12.8622398414271562
 20
-6.3686818632309219
 10
12.8761149653121905
 20
-6.3686818632309219
 10
12.8899900891972248
 20
-6.3686818632309219
 10
12.9038652130822609
 20
-6.3686818632309219
 10
12.9177403369672952
 20
-6.3686818632309219
 10
12.9316154608523295
 20
-6.3686818632309219
 10
12.9454905847373638
 20
-6.3686818632309219
 10
12.9454905847373638
 20
-6.3825569871159562
 10
12.9593657086223981
 20
-6.3825569871159562
 10
12.9732408325074342
 20
-6.3825569871159562
 10
12.9871159563924685
 20
-6.3825569871159562
 10
13.0009910802775028
 20
-6.3825569871159562
 10
13.0148662041625371
 20
-6.3825569871159562
 10
13.0287413280475715
 20
-6.3825569871159562
 10
13.0426164519326075
 20
-6.3825569871159562
 10
13.0564915758176419
 20
-6.3825569871159562
 10
13.0703666997026762
 20
-6.3825569871159562
 10
13.0842418235877105
 20
-6.3825569871159562
 10
13.0981169474727448
 20
-6.3825569871159562
 10
13.1119920713577809
 20
-6.3825569871159562
 10
13.1258671952428152
 20
-6.3825569871159562
 10
13.1397423191278495
 20
-6.3825569871159562
 10
13.1536174430128838
 20
-6.3825569871159562
 10
13.1674925668979199
 20
-6.3825569871159562
 10
13.1813676907829542
 20
-6.3825569871159562
 10
13.1952428146679885
 20
-6.3825569871159562
 10
13.2091179385530229
 20
-6.3825569871159562
 10
13.2229930624380572
 20
-6.3825569871159562
 10
13.2368681863230933
 20
-6.3825569871159562
 10
13.2507433102081276
 20
-6.3825569871159562
 10
13.2646184340931619
 20
-6.3825569871159562
 10
13.2784935579781962
 20
-6.3825569871159562
 10
13.2923686818632305
 20
-6.3825569871159562
 10
13.3062438057482666
 20
-6.3825569871159562
 10
13.3201189296333009
 20
-6.3825569871159562
 10
13.3339940535183352
 20
-6.3825569871159562
 10
13.3339940535183352
 20
-6.3686818632309219
 10
13.3478691774033695
 20
-6.3686818632309219
 10
13.3617443012884056
 20
-6.3686818632309219
 10
13.3756194251734399
 20
-6.3686818632309219
 10
13.3894945490584742
 20
-6.3686818632309219
 10
13.3894945490584742
 20
-6.3548067393458876
 10
13.4033696729435086
 20
-6.3548067393458876
 10
13.4172447968285429
 20
-6.3548067393458876
 10
13.431119920713579
 20
-6.3548067393458876
 10
13.4449950445986133
 20
-6.3686818632309219
 10
13.4449950445986133
 20
-6.3825569871159562
 10
13.4588701684836476
 20
-6.3825569871159562
 10
13.4588701684836476
 20
-6.3964321110009914
 10
13.4588701684836476
 20
-6.4103072348860257
 10
13.4727452923686819
 20
-6.4103072348860257
 10
13.4727452923686819
 20
-6.4241823587710609
 10
13.4727452923686819
 20
-6.4380574826560952
 10
13.4727452923686819
 20
-6.4519326065411304
 10
13.4727452923686819
 20
-6.4658077304261647
 10
13.4727452923686819
 20
-6.4796828543111991
 10
13.4727452923686819
 20
-6.4935579781962343
 10
13.4727452923686819
 20
-6.5074331020812686
 10
13.4727452923686819
 20
-6.5213082259663038
 10
13.4727452923686819
 20
-6.5351833498513381
 10
13.4727452923686819
 20
-6.5490584737363724
 10
13.4727452923686819
 20
-6.5629335976214076
 10
13.4727452923686819
 20
-6.5768087215064419
 10
13.4727452923686819
 20
-6.5906838453914771
 10
13.4727452923686819
 20
-6.6045589692765114
 10
13.4727452923686819
 20
-6.6184340931615466
 10
13.4727452923686819
 20
-6.6323092170465809
 10
13.4727452923686819
 20
-6.6461843409316153
 10
13.4588701684836476
 20
-6.6461843409316153
 10
13.4449950445986133
 20
-6.6600594648166505
 10
13.431119920713579
 20
-6.6600594648166505
 10
13.4172447968285429
 20
-6.6600594648166505
 10
13.4033696729435086
 20
-6.6600594648166505
 10
13.3894945490584742
 20
-6.6600594648166505
 10
13.3756194251734399
 20
-6.6600594648166505
 10
13.3617443012884056
 20
-6.6600594648166505
 10
13.3478691774033695
 20
-6.6600594648166505
 10
13.3339940535183352
 20
-6.6600594648166505
 10
13.3201189296333009
 20
-6.6600594648166505
 10
13.3062438057482666
 20
-6.6600594648166505
 10
13.2784935579781962
 20
-6.6600594648166505
 10
13.2646184340931619
 20
-6.6739345887016848
 10
13.2507433102081276
 20
-6.6739345887016848
 10
13.2229930624380572
 20
-6.6739345887016848
 10
13.2091179385530229
 20
-6.6739345887016848
 10
13.1952428146679885
 20
-6.6739345887016848
 10
13.1813676907829542
 20
-6.6739345887016848
 10
13.1674925668979199
 20
-6.6739345887016848
 10
13.1536174430128838
 20
-6.6739345887016848
 10
13.1397423191278495
 20
-6.6739345887016848
 10
13.1119920713577809
 20
-6.6739345887016848
 10
13.0981169474727448
 20
-6.6739345887016848
 10
13.0703666997026762
 20
-6.6739345887016848
 10
13.0564915758176419
 20
-6.6739345887016848
 10
13.0426164519326075
 20
-6.6739345887016848
 10
13.0287413280475715
 20
-6.6739345887016848
 10
13.0287413280475715
 20
-6.6600594648166505
 10
13.0148662041625371
 20
-6.6600594648166505
 10
13.0009910802775028
 20
-6.6600594648166505
 10
12.9871159563924685
 20
-6.6600594648166505
 10
12.9732408325074342
 20
-6.6600594648166505
 10
12.9454905847373638
 20
-6.6600594648166505
 10
12.9316154608523295
 20
-6.6600594648166505
 10
12.9177403369672952
 20
-6.6600594648166505
 10
12.9038652130822609
 20
-6.6600594648166505
 10
12.8899900891972248
 20
-6.6600594648166505
 10
12.8761149653121905
 20
-6.6600594648166505
 10
12.8622398414271562
 20
-6.6600594648166505
 10
12.8483647175421218
 20
-6.6600594648166505
 10
12.8344895936570857
 20
-6.6600594648166505
 10
12.8206144697720514
 20
-6.6600594648166505
 10
12.8067393458870171
 20
-6.6600594648166505
 10
12.7928642220019828
 20
-6.6600594648166505
 10
12.7789890981169485
 20
-6.6600594648166505
 10
12.7651139742319124
 20
-6.6600594648166505
 10
12.7512388503468781
 20
-6.6600594648166505
 10
12.7373637264618438
 20
-6.6600594648166505
 10
12.7234886025768095
 20
-6.6600594648166505
 10
12.7096134786917752
 20
-6.6600594648166505
 10
12.7096134786917752
 20
-6.6461843409316153
 10
12.6957383548067391
 20
-6.6461843409316153
 10
12.6818632309217048
 20
-6.6461843409316153
 10
12.6679881070366704
 20
-6.6461843409316153
 10
12.6541129831516361
 20
-6.6323092170465809
 10
12.6402378592666018
 20
-6.6323092170465809
 10
12.6402378592666018
 20
-6.6184340931615466
 10
12.6263627353815657
 20
-6.6184340931615466
 10
12.6263627353815657
 20
-6.6045589692765114
 10
12.6263627353815657
 20
-6.5906838453914771
 10
12.6263627353815657
 20
-6.5768087215064419
 10
12.6263627353815657
 20
-6.5629335976214076
 10
12.6263627353815657
 20
-6.5490584737363724
 10
12.6263627353815657
 20
-6.5351833498513381
 10
12.6402378592666018
 20
-6.5351833498513381
 10
12.6402378592666018
 20
-6.5213082259663038
 10
12.6402378592666018
 20
-6.5074331020812686
 10
12.6402378592666018
 20
-6.4935579781962343
 10
12.6402378592666018
 20
-6.4796828543111991
 10
12.6541129831516361
 20
-6.4796828543111991
 10
12.6541129831516361
 20
-6.4658077304261647
 10
12.6541129831516361
 20
-6.4519326065411304
 10
12.6541129831516361
 20
-6.4380574826560952
 10
12.6541129831516361
 20
-6.4241823587710609
 10
12.6679881070366704
 20
-6.4241823587710609
 10
12.6679881070366704
 20
-6.4103072348860257
 10
12.6818632309217048
 20
-6.4103072348860257
 10
12.6818632309217048
 20
-6.3964321110009914
  0
LWPOLYLINE
  5
4A
  8
0
 62
256
370
-1
  6
ByLayer
100
AcDbEntity
100
AcDbPolyline
 90
47
 70
0
 10
13.0564915758176419
 20
-6.21605550049554
 10
13.0426164519326075
 20
-6.21605550049554
 10
13.0287413280475715
 20
-6.21605550049554
 10
13.0148662041625371
 20
-6.21605550049554
 10
13.0009910802775028
 20
-6.21605550049554
 10
12.9871159563924685
 20
-6.21605550049554
 10
12.9732408325074342
 20
-6.21605550049554
 10
12.9593657086223981
 20
-6.21605550049554
 10
12.9454905847373638
 20
-6.21605550049554
 10
12.9316154608523295
 20
-6.2299306243805752
 10
12.9177403369672952
 20
-6.2299306243805752
 10
12.9177403369672952
 20
-6.2438057482656095
 10
12.9177403369672952
 20
-6.2576808721506447
 10
12.9038652130822609
 20
-6.2576808721506447
 10
12.9038652130822609
 20
-6.271555996035679
 10
12.9038652130822609
 20
-6.2854311199207133
 10
12.9038652130822609
 20
-6.2993062438057486
 10
12.9038652130822609
 20
-6.3131813676907829
 10
12.9038652130822609
 20
-6.3270564915758181
 10
12.9177403369672952
 20
-6.3270564915758181
 10
12.9177403369672952
 20
-6.3409316154608524
 10
12.9177403369672952
 20
-6.3548067393458876
 10
12.9316154608523295
 20
-6.3548067393458876
 10
12.9454905847373638
 20
-6.3686818632309219
 10
12.9593657086223981
 20
-6.3686818632309219
 10
12.9593657086223981
 20
-6.3825569871159562
 10
12.9732408325074342
 20
-6.3825569871159562
 10
12.9871159563924685
 20
-6.3825569871159562
 10
13.0009910802775028
 20
-6.3825569871159562
 10
13.0148662041625371
 20
-6.3825569871159562
 10
13.0148662041625371
 20
-6.3686818632309219
 10
13.0148662041625371
 20
-6.3548067393458876
 10
13.0287413280475715
 20
-6.3548067393458876
 10
13.0287413280475715
 20
-6.3409316154608524
 10
13.0426164519326075
 20
-6.3409316154608524
 10
13.0426164519326075
 20
-6.3270564915758181
 10
13.0564915758176419
 20
-6.3131813676907829
 10
13.0564915758176419
 20
-6.2993062438057486
 10
13.0564915758176419
 20
-6.2854311199207133
 10
13.0564915758176419
 20
-6.271555996035679
 10
13.0426164519326075
 20
-6.271555996035679
 10
13.0426164519326075
 20
-6.2576808721506447
 10
13.0287413280475715
 20
-6.2576808721506447
 10
13.0287413280475715
 20
-6.2438057482656095
 10
13.0148662041625371
 20
-6.2438057482656095
 10
13.0148662041625371
 20
-6.2299306243805752
 10
13.0009910802775028
 20
-6.2299306243805752
  0
LWPOLYLINE
  5
4B
  8
0
 62
256
370
-1
  6
ByLayer
100
AcDbEntity
100
AcDbPolyline
 90
278
 70
0
 10
-0.0832507433102081
 20
-6.21605550049554
 10
-0.0832507433102081
 20
-6.2299306243805752
 10
-0.0832507433102081
 20
-6.2438057482656095
 10
-0.0832507433102081
 20
-6.2576808721506447
 10
-0.0832507433102081
 20
-6.271555996035679
 10
-0.0971258671952428
 20
-6.271555996035679
 10
-0.0971258671952428
 20
-6.2854311199207133
 10
-0.0971258671952428
 20
-6.2993062438057486
 10
-0.0971258671952428
 20
-6.3131813676907829
 10
-0.0971258671952428
 20
-6.3270564915758181
 10
-0.1110009910802775
 20
-6.3409316154608524
 10
-0.1110009910802775
 20
-6.3548067393458876
 10
-0.1110009910802775
 20
-6.3686818632309219
 10
-0.1110009910802775
 20
-6.3825569871159562
 10
-0.1110009910802775
 20
-6.3964321110009914
 10
-0.1248761149653122
 20
-6.3964321110009914
 10
-0.1248761149653122
 20
-6.4103072348860257
 10
-0.1248761149653122
 20
-6.4241823587710609
 10
-0.1248761149653122
 20
-6.4380574826560952
 10
-0.1248761149653122
 20
-6.4519326065411304
 10
-0.1387512388503469
 20
-6.4519326065411304
 10
-0.1387512388503469
 20
-6.4658077304261647
 10
-0.1387512388503469
 20
-6.4796828543111991
 10
-0.1387512388503469
 20
-6.4935579781962343
 10
-0.1387512388503469
 20
-6.5074331020812686
 10
-0.1387512388503469
 20
-6.5213082259663038
 10
-0.1387512388503469
 20
-6.5351833498513381
 10
-0.1387512388503469
 20
-6.5490584737363724
 10
-0.1387512388503469
 20
-6.5629335976214076
 10
-0.1387512388503469
 20
-6.5768087215064419
 10
-0.1526263627353816
 20
-6.5768087215064419
 10
-0.1526263627353816
 20
-6.5906838453914771
 10
-0.1665014866204163
 20
-6.5906838453914771
 10
-0.1665014866204163
 20
-6.6045589692765114
 10
-0.1665014866204163
 20
-6.6184340931615466
 10
-0.1665014866204163
 20
-6.6323092170465809
 10
-0.180376610505451
 20
-6.6323092170465809
 10
-0.180376610505451
 20
-6.6461843409316153
 10
-0.180376610505451
 20
-6.6600594648166505
 10
-0.180376610505451
 20
-6.6739345887016848
 10
-0.180376610505451
 20
-6.68780971258672
 10
-0.180376610505451
 20
-6.7016848364717543
 10
-0.180376610505451
 20
-6.7155599603567895
 10
-0.1942517343904856
 20
-6.7155599603567895
 10
-0.1942517343904856
 20
-6.7294350842418238
 10
-0.1942517343904856
 20
-6.7433102081268581
 10
-0.1942517343904856
 20
-6.7571853320118933
 10
-0.1942517343904856
 20
-6.7710604558969276
 10
-0.2081268582755203
 20
-6.7849355797819628
 10
-0.2081268582755203
 20
-6.7988107036669971
 10
-0.2081268582755203
 20
-6.8126858275520323
 10
-0.2081268582755203
 20
-6.8265609514370666
 10
-0.2081268582755203
 20
-6.840436075322101
 10
-0.2081268582755203
 20
-6.8543111992071362
 10
-0.2081268582755203
 20
-6.8681863230921705
 10
-0.2081268582755203
 20
-6.8820614469772057
 10
-0.2081268582755203
 20
-6.89593657086224
 10
-0.222001982160555
 20
-6.9098116947472743
 10
-0.222001982160555
 20
-6.9236868186323095
 10
-0.222001982160555
 20
-6.9375619425173438
 10
-0.222001982160555
 20
-6.951437066402379
 10
-0.222001982160555
 20
-6.9653121902874133
 10
-0.222001982160555
 20
-6.9791873141724485
 10
-0.222001982160555
 20
-6.9930624380574828
 10
-0.222001982160555
 20
-7.0069375619425172
 10
-0.222001982160555
 20
-7.0208126858275524
 10
-0.2081268582755203
 20
-7.0208126858275524
 10
-0.2081268582755203
 20
-7.0346878097125867
 10
-0.2081268582755203
 20
-7.0485629335976219
 10
-0.2081268582755203
 20
-7.0624380574826562
 10
-0.2081268582755203
 20
-7.0763131813676914
 10
-0.2081268582755203
 20
-7.0901883052527257
 10
-0.1942517343904856
 20
-7.0901883052527257
 10
-0.1942517343904856
 20
-7.10406342913776
 10
-0.1942517343904856
 20
-7.1179385530227952
 10
-0.180376610505451
 20
-7.1179385530227952
 10
-0.180376610505451
 20
-7.1318136769078295
 10
-0.1665014866204163
 20
-7.1456888007928647
 10
-0.1665014866204163
 20
-7.159563924677899
 10
-0.1526263627353816
 20
-7.159563924677899
 10
-0.1526263627353816
 20
-7.1734390485629342
 10
-0.1387512388503469
 20
-7.1734390485629342
 10
-0.1387512388503469
 20
-7.1873141724479686
 10
-0.1248761149653122
 20
-7.1873141724479686
 10
-0.1248761149653122
 20
-7.2011892963330029
 10
-0.1110009910802775
 20
-7.2011892963330029
 10
-0.1110009910802775
 20
-7.2150644202180381
 10
-0.0971258671952428
 20
-7.2150644202180381
 10
-0.0832507433102081
 20
-7.2289395441030724
 10
-0.0693756194251734
 20
-7.2289395441030724
 10
-0.0693756194251734
 20
-7.2428146679881076
 10
-0.0555004955401388
 20
-7.2428146679881076
 10
-0.0555004955401388
 20
-7.2566897918731419
 10
-0.0416253716551041
 20
-7.2566897918731419
 10
-0.0277502477700694
 20
-7.2566897918731419
 10
-0.0277502477700694
 20
-7.2705649157581762
 10
-0.0138751238850347
 20
-7.2705649157581762
 10
0.0
 20
-7.2705649157581762
 10
0.0
 20
-7.2844400396432114
 10
0.0138751238850347
 20
-7.2844400396432114
 10
0.0277502477700694
 20
-7.2844400396432114
 10
0.0416253716551041
 20
-7.2844400396432114
 10
0.0416253716551041
 20
-7.2983151635282457
 10
0.0555004955401388
 20
-7.2983151635282457
 10
0.0693756194251734
 20
-7.2983151635282457
 10
0.0832507433102081
 20
-7.2983151635282457
 10
0.0971258671952428
 20
-7.2983151635282457
 10
0.1110009910802775
 20
-7.2983151635282457
 10
0.1248761149653122
 20
-7.2983151635282457
 10
0.1387512388503469
 20
-7.2983151635282457
 10
0.1526263627353816
 20
-7.2983151635282457
 10
0.1526263627353816
 20
-7.2844400396432114
 10
0.1665014866204163
 20
-7.2844400396432114
 10
0.180376610505451
 20
-7.2844400396432114
 10
0.1942517343904856
 20
-7.2844400396432114
 10
0.2081268582755203
 20
-7.2844400396432114
 10
0.2081268582755203
 20
-7.2705649157581762
 10
0.222001982160555
 20
-7.2705649157581762
 10
0.2358771060455897
 20
-7.2705649157581762
 10
0.2358771060455897
 20
-7.2566897918731419
 10
0.2497522299306244
 20
-7.2566897918731419
 10
0.2497522299306244
 20
-7.2428146679881076
 10
0.263627353815659
 20
-7.2289395441030724
 10
0.263627353815659
 20
-7.2150644202180381
 10
0.263627353815659
 20
-7.2011892963330029
 10
0.2775024777006938
 20
-7.2011892963330029
 10
0.2775024777006938
 20
-7.1873141724479686
 10
0.2775024777006938
 20
-7.1734390485629342
 10
0.2775024777006938
 20
-7.159563924677899
 10
0.2775024777006938
 20
-7.1456888007928647
 10
0.2775024777006938
 20
-7.1318136769078295
 10
0.2775024777006938
 20
-7.1179385530227952
 10
0.2775024777006938
 20
-7.10406342913776
 10
0.2775024777006938
 20
-7.0901883052527257
 10
0.2775024777006938
 20
-7.0763131813676914
 10
0.2775024777006938
 20
-7.0624380574826562
 10
0.2775024777006938
 20
-7.0485629335976219
 10
0.263627353815659
 20
-7.0346878097125867
 10
0.263627353815659
 20
-7.0208126858275524
 10
0.263627353815659
 20
-7.0069375619425172
 10
0.263627353815659
 20
-6.9930624380574828
 10
0.263627353815659
 20
-6.9791873141724485
 10
0.2497522299306244
 20
-6.9653121902874133
 10
0.2497522299306244
 20
-6.951437066402379
 10
0.2358771060455897
 20
-6.951437066402379
 10
0.2358771060455897
 20
-6.9375619425173438
 10
0.222001982160555
 20
-6.9375619425173438
 10
0.2081268582755203
 20
-6.9375619425173438
 10
0.1942517343904856
 20
-6.9375619425173438
 10
0.180376610505451
 20
-6.9375619425173438
 10
0.180376610505451
 20
-6.951437066402379
 10
0.180376610505451
 20
-6.9653121902874133
 10
0.1665014866204163
 20
-6.9653121902874133
 10
0.1665014866204163
 20
-6.9791873141724485
 10
0.1665014866204163
 20
-6.9930624380574828
 10
0.1665014866204163
 20
-7.0069375619425172
 10
0.1665014866204163
 20
-7.0208126858275524
 10
0.1665014866204163
 20
-7.0346878097125867
 10
0.180376610505451
 20
-7.0485629335976219
 10
0.180376610505451
 20
-7.0624380574826562
 10
0.180376610505451
 20
-7.0763131813676914
 10
0.180376610505451
 20
-7.0901883052527257
 10
0.180376610505451
 20
-7.10406342913776
 10
0.180376610505451
 20
-7.1179385530227952
 10
0.180376610505451
 20
-7.1318136769078295
 10
0.180376610505451
 20
-7.1456888007928647
 10
0.180376610505451
 20
-7.159563924677899
 10
0.1665014866204163
 20
-7.159563924677899
 10
0.1665014866204163
 20
-7.1734390485629342
 10
0.1665014866204163
 20
-7.1873141724479686
 10
0.1526263627353816
 20
-7.1873141724479686
 10
0.1526263627353816
 20
-7.2011892963330029
 10
0.1387512388503469
 20
-7.2011892963330029
 10
0.1248761149653122
 20
-7.2011892963330029
 10
0.1248761149653122
 20
-7.2150644202180381
 10
0.1110009910802775
 20
-7.2150644202180381
 10
0.0971258671952428
 20
-7.2150644202180381
 10
0.0832507433102081
 20
-7.2150644202180381
 10
0.0693756194251734
 20
-7.2150644202180381
 10
0.0555004955401388
 20
-7.2150644202180381
 10
0.0416253716551041
 20
-7.2150644202180381
 10
0.0416253716551041
 20
-7.2011892963330029
 10
0.0416253716551041
 20
-7.1873141724479686
 10
0.0277502477700694
 20
-7.1873141724479686
 10
0.0138751238850347
 20
-7.1873141724479686
 10
0.0
 20
-7.1734390485629342
 10
-0.0138751238850347
 20
-7.1734390485629342
 10
-0.0138751238850347
 20
-7.159563924677899
 10
-0.0277502477700694
 20
-7.159563924677899
 10
-0.0277502477700694
 20
-7.1456888007928647
 10
-0.0416253716551041
 20
-7.1456888007928647
 10
-0.0555004955401388
 20
-7.1456888007928647
 10
-0.0555004955401388
 20
-7.1318136769078295
 10
-0.0693756194251734
 20
-7.1318136769078295
 10
-0.0693756194251734
 20
-7.1179385530227952
 10
-0.0832507433102081
 20
-7.1179385530227952
 10
-0.0971258671952428
 20
-7.1179385530227952
 10
-0.0971258671952428
 20
-7.10406342913776
 10
-0.1110009910802775
 20
-7.0901883052527257
 10
-0.1248761149653122
 20
-7.0901883052527257
 10
-0.1248761149653122
 20
-7.0763131813676914
 10
-0.1387512388503469
 20
-7.0763131813676914
 10
-0.1387512388503469
 20
-7.0624380574826562
 10
-0.1526263627353816
 20
-7.0485629335976219
 10
-0.1526263627353816
 20
-7.0346878097125867
 10
-0.1526263627353816
 20
-7.0208126858275524
 10
-0.1526263627353816
 20
-7.0069375619425172
 10
-0.1526263627353816
 20
-6.9930624380574828
 10
-0.1526263627353816
 20
-6.9791873141724485
 10
-0.1526263627353816
 20
-6.9653121902874133
 10
-0.1526263627353816
 20
-6.951437066402379
 10
-0.1387512388503469
 20
-6.951437066402379
 10
-0.1387512388503469
 20
-6.9375619425173438
 10
-0.1387512388503469
 20
-6.9236868186323095
 10
-0.1387512388503469
 20
-6.9098116947472743
 10
-0.1248761149653122
 20
-6.9098116947472743
 10
-0.1248761149653122
 20
-6.89593657086224
 10
-0.1248761149653122
 20
-6.8820614469772057
 10
-0.1248761149653122
 20
-6.8681863230921705
 10
-0.1110009910802775
 20
-6.8681863230921705
 10
-0.1110009910802775
 20
-6.8543111992071362
 10
-0.1110009910802775
 20
-6.840436075322101
 10
-0.1110009910802775
 20
-6.8265609514370666
 10
-0.1110009910802775
 20
-6.8126858275520323
 10
-0.1110009910802775
 20
-6.7988107036669971
 10
-0.0971258671952428
 20
-6.7988107036669971
 10
-0.0832507433102081
 20
-6.7849355797819628
 10
-0.0832507433102081
 20
-6.7710604558969276
 10
-0.0693756194251734
 20
-6.7710604558969276
 10
-0.0693756194251734
 20
-6.7571853320118933
 10
-0.0555004955401388
 20
-6.7433102081268581
 10
-0.0555004955401388
 20
-6.7294350842418238
 10
-0.0555004955401388
 20
-6.7155599603567895
 10
-0.0555004955401388
 20
-6.7016848364717543
 10
-0.0416253716551041
 20
-6.7016848364717543
 10
-0.0416253716551041
 20
-6.68780971258672
 10
-0.0277502477700694
 20
-6.68780971258672
 10
-0.0277502477700694
 20
-6.6739345887016848
 10
-0.0277502477700694
 20
-6.6600594648166505
 10
-0.0277502477700694
 20
-6.6461843409316153
 10
-0.0138751238850347
 20
-6.6461843409316153
 10
-0.0138751238850347
 20
-6.6323092170465809
 10
-0.0138751238850347
 20
-6.6184340931615466
 10
-0.0138751238850347
 20
-6.6045589692765114
 10
-0.0138751238850347
 20
-6.5906838453914771
 10
-0.0138751238850347
 20
-6.5768087215064419
 10
-0.0138751238850347
 20
-6.5629335976214076
 10
-0.0138751238850347
 20
-6.5490584737363724
 10
-0.0138751238850347
 20
-6.5351833498513381
 10
0.0
 20
-6.5213082259663038
 10
0.0
 20
-6.5074331020812686
 10
0.0
 20
-6.4935579781962343
 10
0.0138751238850347
 20
-6.4935579781962343
 10
0.0138751238850347
 20
-6.4796828543111991
 10
0.0138751238850347
 20
-6.4658077304261647
 10
0.0138751238850347
 20
-6.4519326065411304
 10
0.0277502477700694
 20
-6.4380574826560952
 10
0.0277502477700694
 20
-6.4241823587710609
 10
0.0277502477700694
 20
-6.4103072348860257
 10
0.0277502477700694
 20
-6.3964321110009914
 10
0.0277502477700694
 20
-6.3825569871159562
 10
0.0277502477700694
 20
-6.3686818632309219
 10
0.0416253716551041
 20
-6.3686818632309219
 10
0.0416253716551041
 20
-6.3548067393458876
 10
0.0416253716551041
 20
-6.3409316154608524
 10
0.0416253716551041
 20
-6.3270564915758181
 10
0.0555004955401388
 20
-6.3131813676907829
 10
0.0555004955401388
 20
-6.2993062438057486
 10
0.0555004955401388
 20
-6.2854311199207133
 10
0.0555004955401388
 20
-6.271555996035679
 10
0.0693756194251734
 20
-6.271555996035679
 10
0.0693756194251734
 20
-6.2576808721506447
 10
0.0693756194251734
 20
-6.2438057482656095
 10
0.0832507433102081
 20
-6.2438057482656095
 10
0.0832507433102081
 20
-6.2299306243805752
 10
0.0832507433102081
 20
-6.21605550049554
 10
0.0971258671952428
 20
-6.21605550049554
 10
0.0971258671952428
 20
-6.2021803766105057
  0
LWPOLYLINE
  5
4C
  8
0
 62
256
370
-1
  6
ByLayer
100
AcDbEntity
100
AcDbPolyline
 90
106
 70
0
 10
3.8156590683845391
 20
-1.4430128840436076
 10
3.8156590683845391
 20
-1.4291377601585729
 10
3.8017839444995047
 20
-1.4291377601585729
 10
3.78790882061447
 20
-1.4291377601585729
 10
3.78790882061447
 20
-1.4152626362735381
 10
3.7740336967294352
 20
-1.4152626362735381
 10
3.7601585728444005
 20
-1.4152626362735381
 10
3.7462834489593657
 20
-1.4152626362735381
 10
3.732408325074331
 20
-1.4152626362735381
 10
3.7185332011892966
 20
-1.4152626362735381
 10
3.7046580773042619
 20
-1.4152626362735381
 10
3.6907829534192271
 20
-1.4291377601585729
 10
3.6769078295341924
 20
-1.4291377601585729
 10
3.6630327056491576
 20
-1.4291377601585729
 10
3.6491575817641229
 20
-1.4291377601585729
 10
3.6491575817641229
 20
-1.4430128840436076
 10
3.6352824578790881
 20
-1.4430128840436076
 10
3.6214073339940538
 20
-1.4430128840436076
 10
3.6214073339940538
 20
-1.4568880079286424
 10
3.607532210109019
 20
-1.4568880079286424
 10
3.5936570862239843
 20
-1.4568880079286424
 10
3.5936570862239843
 20
-1.4707631318136769
 10
3.5797819623389495
 20
-1.4846382556987117
 10
3.5797819623389495
 20
-1.4985133795837464
 10
3.5797819623389495
 20
-1.512388503468781
 10
3.5659068384539148
 20
-1.512388503468781
 10
3.5659068384539148
 20
-1.5262636273538157
 10
3.5659068384539148
 20
-1.5401387512388505
 10
3.5659068384539148
 20
-1.554013875123885
 10
3.55203171456888
 20
-1.554013875123885
 10
3.55203171456888
 20
-1.5678889990089198
 10
3.55203171456888
 20
-1.5817641228939545
 10
3.55203171456888
 20
-1.5956392467789891
 10
3.5659068384539148
 20
-1.6095143706640238
 10
3.5659068384539148
 20
-1.6233894945490586
 10
3.5797819623389495
 20
-1.6233894945490586
 10
3.5797819623389495
 20
-1.6372646184340931
 10
3.5936570862239843
 20
-1.6372646184340931
 10
3.5936570862239843
 20
-1.6511397423191279
 10
3.607532210109019
 20
-1.6511397423191279
 10
3.607532210109019
 20
-1.6650148662041626
 10
3.6214073339940538
 20
-1.6650148662041626
 10
3.6214073339940538
 20
-1.6788899900891974
 10
3.6352824578790881
 20
-1.6788899900891974
 10
3.6491575817641229
 20
-1.6927651139742319
 10
3.6630327056491576
 20
-1.6927651139742319
 10
3.6769078295341924
 20
-1.6927651139742319
 10
3.6769078295341924
 20
-1.7066402378592667
 10
3.6907829534192271
 20
-1.7066402378592667
 10
3.7046580773042619
 20
-1.7066402378592667
 10
3.7185332011892966
 20
-1.7066402378592667
 10
3.7185332011892966
 20
-1.7205153617443014
 10
3.732408325074331
 20
-1.7205153617443014
 10
3.7462834489593657
 20
-1.7205153617443014
 10
3.7462834489593657
 20
-1.734390485629336
 10
3.7601585728444005
 20
-1.734390485629336
 10
3.7740336967294352
 20
-1.7482656095143707
 10
3.78790882061447
 20
-1.7482656095143707
 10
3.8017839444995047
 20
-1.7482656095143707
 10
3.8156590683845391
 20
-1.7482656095143707
 10
3.8295341922695738
 20
-1.7482656095143707
 10
3.8434093161546086
 20
-1.7482656095143707
 10
3.8572844400396433
 20
-1.7482656095143707
 10
3.8711595639246781
 20
-1.7482656095143707
 10
3.8850346878097128
 20
-1.7482656095143707
 10
3.8989098116947476
 20
-1.7482656095143707
 10
3.9127849355797819
 20
-1.7482656095143707
 10
3.9127849355797819
 20
-1.734390485629336
 10
3.9266600594648167
 20
-1.734390485629336
 10
3.9405351833498514
 20
-1.734390485629336
 10
3.9405351833498514
 20
-1.7205153617443014
 10
3.9405351833498514
 20
-1.7066402378592667
 10
3.9544103072348862
 20
-1.7066402378592667
 10
3.9544103072348862
 20
-1.6927651139742319
 10
3.9544103072348862
 20
-1.6788899900891974
 10
3.9544103072348862
 20
-1.6650148662041626
 10
3.9544103072348862
 20
-1.6511397423191279
 10
3.9405351833498514
 20
-1.6511397423191279
 10
3.9405351833498514
 20
-1.6372646184340931
 10
3.9405351833498514
 20
-1.6233894945490586
 10
3.9405351833498514
 20
-1.6095143706640238
 10
3.9405351833498514
 20
-1.5956392467789891
 10
3.9405351833498514
 20
-1.5817641228939545
 10
3.9405351833498514
 20
-1.5678889990089198
 10
3.9405351833498514
 20
-1.554013875123885
 10
3.9405351833498514
 20
-1.5401387512388505
 10
3.9266600594648167
 20
-1.5401387512388505
 10
3.9266600594648167
 20
-1.5262636273538157
 10
3.9127849355797819
 20
-1.5262636273538157
 10
3.9127849355797819
 20
-1.512388503468781
 10
3.9127849355797819
 20
-1.4985133795837464
 10
3.8989098116947476
 20
-1.4985133795837464
 10
3.8989098116947476
 20
-1.4846382556987117
 10
3.8850346878097128
 20
-1.4846382556987117
 10
3.8850346878097128
 20
-1.4707631318136769
 10
3.8711595639246781
 20
-1.4707631318136769
 10
3.8711595639246781
 20
-1.4568880079286424
 10
3.8572844400396433
 20
-1.4568880079286424
 10
3.8572844400396433
 20
-1.4430128840436076
 10
3.8434093161546086
 20
-1.4430128840436076
 10
3.8295341922695738
 20
-1.4430128840436076
 10
3.8156590683845391
 20
-1.4291377601585729
 10
3.8017839444995047
 20
-1.4291377601585729
 10
3.78790882061447
 20
-1.4291377601585729
 10
3.7740336967294352
 20
-1.4291377601585729
 10
3.7740336967294352
 20
-1.4152626362735381
  0
LWPOLYLINE
  5
4D
  8
0
 62
256
370
-1
  6
ByLayer
100
AcDbEntity
100
AcDbPolyline
 90
16
 70
0
 10
3.4410307234886028
 20
-1.3597621407333995
 10
3.4271555996035681
 20
-1.3597621407333995
 10
3.4271555996035681
 20
-1.3458870168483648
 10
3.4132804757185333
 20
-1.3458870168483648
 10
3.3994053518334986
 20
-1.33201189296333
 10
3.3855302279484638
 20
-1.33201189296333
 10
3.3855302279484638
 20
-1.3181367690782955
 10
3.3716551040634291
 20
-1.3181367690782955
 10
3.3577799801783947
 20
-1.3181367690782955
 10
3.3577799801783947
 20
-1.3042616451932607
 10
3.34390485629336
 20
-1.3042616451932607
 10
3.3300297324083252
 20
-1.3042616451932607
 10
3.3161546085232905
 20
-1.3042616451932607
 10
3.3161546085232905
 20
-1.290386521308226
 10
3.3022794846382557
 20
-1.290386521308226
 10
3.288404360753221
 20
-1.290386521308226
  0
LWPOLYLINE
  5
4E
  8
0
 62
256
370
-1
  6
ByLayer
100
AcDbEntity
100
AcDbPolyline
 90
14
 70
0
 10
3.1219028741328048
 20
-1.1655104063429138
 10
3.10802775024777
 20
-1.1655104063429138
 10
3.0941526263627352
 20
-1.1655104063429138
 10
3.0802775024777009
 20
-1.1516352824578791
 10
3.0664023785926662
 20
-1.1516352824578791
 10
3.0525272547076314
 20
-1.1377601585728445
 10
3.0247770069375619
 20
-1.1238850346878098
 10
2.9970267591674928
 20
-1.1238850346878098
 10
2.9831516352824581
 20
-1.110009910802775
 10
2.9554013875123886
 20
-1.110009910802775
 10
2.9415262636273538
 20
-1.0961347869177405
 10
2.9137760158572847
 20
-1.0961347869177405
 10
2.89990089197225
 20
-1.0961347869177405
 10
2.8860257680872152
 20
-1.0822596630327057
  0
LWPOLYLINE
  5
4F
  8
0
 62
256
370
-1
  6
ByLayer
100
AcDbEntity
100
AcDbPolyline
 90
16
 70
0
 10
2.6362735381565909
 20
-1.0406342913776017
 10
2.6223984142715562
 20
-1.0406342913776017
 10
2.6085232903865214
 20
-1.0406342913776017
 10
2.5946481665014867
 20
-1.0267591674925669
 10
2.5807730426164519
 20
-1.0267591674925669
 10
2.5668979187314171
 20
-1.0128840436075321
 10
2.5530227948463828
 20
-1.0128840436075321
 10
2.5391476709613481
 20
-0.9990089197224975
 10
2.5113974231912786
 20
-0.9990089197224975
 10
2.4975222993062438
 20
-0.9851337958374629
 10
2.4697720515361743
 20
-0.9712586719524282
 10
2.4420218037661052
 20
-0.9712586719524282
 10
2.4142715559960357
 20
-0.9573835480673935
 10
2.400396432111001
 20
-0.9573835480673935
 10
2.3726461843409319
 20
-0.9435084241823588
 10
2.3587710604558971
 20
-0.9435084241823588
  0
LINE
  5
50
100
AcDbEntity
100
AcDbLine
  8
0
 62
256
370
-1
  6
ByLayer
 10
13.5976214073339978
 20
-0.4162537165510407
 30
0.0
 11
14.2220019821605579
 21
-0.4162537165510407
 31
0.0
  0
LINE
  5
51
100
AcDbEntity
100
AcDbLine
  8
0
 62
256
370
-1
  6
ByLayer
 10
14.2220019821605579
 20
-0.4162537165510407
 30
0.0
 11
14.2220019821605579
 21
-3.5728444003964328
 31
0.0
  0
LINE
  5
52
100
AcDbEntity
100
AcDbLine
  8
0
 62
256
370
-1
  6
ByLayer
 10
14.2220019821605579
 20
-3.5728444003964328
 30
0.0
 11
13.5976214073339978
 21
-3.5728444003964328
 31
0.0
  0
LINE
  5
53
100
AcDbEntity
100
AcDbLine
  8
0
 62
256
370
-1
  6
ByLayer
 10
13.5976214073339978
 20
-3.5728444003964328
 30
0.0
 11
13.5976214073339978
 21
-0.4162537165510407
 31
0.0
  0
LINE
  5
54
100
AcDbEntity
100
AcDbLine
  8
0
 62
256
370
-1
  6
ByLayer
 10
12.8000000000000007
 20
-2.0
 30
0.0
 11
14.5
 21
-2.0
 31
0.0
  0
LWPOLYLINE
  5
55
  8
0
 62
256
370
-1
  6
ByLayer
100
AcDbEntity
100
AcDbPolyline
 90
58
 70
0
 10
12.8126858275520323
 20
-1.8870168483647176
 10
12.8126858275520323
 20
-1.9028741328047571
 10
12.8126858275520323
 20
-1.9187314172447969
 10
12.8126858275520323
 20
-1.9345887016848364
 10
12.8126858275520323
 20
-1.9504459861248762
 10
12.8126858275520323
 20
-1.9663032705649157
 10
12.8126858275520323
 20
-1.9821605550049555
 10
12.8126858275520323
 20
-1.998017839444995
 10
12.8285431119920705
 20
-1.998017839444995
 10
12.8285431119920705
 20
-2.0138751238850348
 10
12.8285431119920705
 20
-2.0297324083250743
 10
12.8285431119920705
 20
-2.0455896927651138
 10
12.8285431119920705
 20
-2.0614469772051538
 10
12.8285431119920705
 20
-2.0773042616451933
 10
12.8444003964321105
 20
-2.0773042616451933
 10
12.8602576808721505
 20
-2.0773042616451933
 10
12.8602576808721505
 20
-2.0931615460852329
 10
12.8761149653121905
 20
-2.0931615460852329
 10
12.8919722497522304
 20
-2.1090188305252724
 10
12.9078295341922704
 20
-2.1090188305252724
 10
12.9078295341922704
 20
-2.0931615460852329
 10
12.9078295341922704
 20
-2.0773042616451933
 10
12.9078295341922704
 20
-2.0614469772051538
 10
12.9078295341922704
 20
-2.0455896927651138
 10
12.9236868186323086
 20
-2.0455896927651138
 10
12.9395441030723486
 20
-2.0455896927651138
 10
12.9395441030723486
 20
-2.0297324083250743
 10
12.9554013875123886
 20
-2.0297324083250743
 10
12.9712586719524285
 20
-2.0297324083250743
 10
12.9871159563924685
 20
-2.0297324083250743
 10
13.0029732408325067
 20
-2.0297324083250743
 10
13.0188305252725467
 20
-2.0297324083250743
 10
13.0188305252725467
 20
-2.0138751238850348
 10
13.0346878097125867
 20
-2.0138751238850348
 10
13.0346878097125867
 20
-1.998017839444995
 10
13.0346878097125867
 20
-1.9821605550049555
 10
13.0188305252725467
 20
-1.9821605550049555
 10
13.0029732408325067
 20
-1.9821605550049555
 10
12.9871159563924685
 20
-1.9821605550049555
 10
12.9712586719524285
 20
-1.9821605550049555
 10
12.9554013875123886
 20
-1.9821605550049555
 10
12.9395441030723486
 20
-1.9821605550049555
 10
12.9236868186323086
 20
-1.9821605550049555
 10
12.9236868186323086
 20
-1.9663032705649157
 10
12.9078295341922704
 20
-1.9663032705649157
 10
12.8919722497522304
 20
-1.9663032705649157
 10
12.8919722497522304
 20
-1.9504459861248762
 10
12.8761149653121905
 20
-1.9504459861248762
 10
12.8761149653121905
 20
-1.9345887016848364
 10
12.8761149653121905
 20
-1.9187314172447969
 10
12.8602576808721505
 20
-1.9187314172447969
 10
12.8602576808721505
 20
-1.9028741328047571
 10
12.8602576808721505
 20
-1.8870168483647176
 10
12.8602576808721505
 20
-1.8711595639246779
 10
12.8444003964321105
 20
-1.8711595639246779
 10
12.8444003964321105
 20
-1.8870168483647176
 10
12.8285431119920705
 20
-1.8870168483647176
 10
12.8285431119920705
 20
-1.9028741328047571
  0
CIRCLE
  5
56
100
AcDbEntity
100
AcDbCircle
  8
0
 62
256
370
-1
  6
ByLayer
 10
12.4558969276511391
 20
-3.3300297324083248
 30
0.0
 40
0.4569127305204811
  0
LWPOLYLINE
  5
57
  8
0
 62
256
370
-1
  6
ByLayer
100
AcDbEntity
100
AcDbPolyline
 90
61
 70
0
 10
14.2715559960356799
 20
-1.8211100099108029
 10
14.2715559960356799
 20
-1.8396927651139743
 10
14.2715559960356799
 20
-1.8582755203171457
 10
14.2715559960356799
 20
-1.8768582755203171
 10
14.2715559960356799
 20
-1.8954410307234886
 10
14.2715559960356799
 20
-1.91402378592666
 10
14.2715559960356799
 20
-1.9326065411298314
 10
14.2715559960356799
 20
-1.9511892963330031
 10
14.2715559960356799
 20
-1.9697720515361745
 10
14.2715559960356799
 20
-1.9883548067393459
 10
14.2715559960356799
 20
-2.0069375619425172
 10
14.2715559960356799
 20
-2.025520317145689
 10
14.2715559960356799
 20
-2.0441030723488605
 10
14.2715559960356799
 20
-2.0626858275520319
 10
14.2901387512388514
 20
-2.0626858275520319
 10
14.2901387512388514
 20
-2.0812685827552033
 10
14.2901387512388514
 20
-2.0998513379583748
 10
14.2901387512388514
 20
-2.1184340931615462
 10
14.2901387512388514
 20
-2.1370168483647176
 10
14.2901387512388514
 20
-2.155599603567889
 10
14.2901387512388514
 20
-2.1741823587710605
 10
14.2901387512388514
 20
-2.1927651139742319
 10
14.2901387512388514
 20
-2.2113478691774033
 10
14.2901387512388514
 20
-2.2299306243805748
 10
14.2901387512388514
 20
-2.2485133795837462
 10
14.2901387512388514
 20
-2.2670961347869176
 10
14.2901387512388514
 20
-2.2856788899900891
 10
14.3087215064420228
 20
-2.2856788899900891
 10
14.3273042616451942
 20
-2.2856788899900891
 10
14.3458870168483656
 20
-2.2856788899900891
 10
14.3644697720515371
 20
-2.2856788899900891
 10
14.3830525272547085
 20
-2.2856788899900891
 10
14.4016352824578799
 20
-2.2856788899900891
 10
14.4016352824578799
 20
-2.2670961347869176
 10
14.4016352824578799
 20
-2.2485133795837462
 10
14.4016352824578799
 20
-2.2299306243805748
 10
14.4016352824578799
 20
-2.2113478691774033
 10
14.4016352824578799
 20
-2.1927651139742319
 10
14.4016352824578799
 20
-2.1741823587710605
 10
14.4016352824578799
 20
-2.155599603567889
 10
14.4016352824578799
 20
-2.1370168483647176
 10
14.4016352824578799
 20
-2.1184340931615462
 10
14.4016352824578799
 20
-2.0998513379583748
 10
14.4016352824578799
 20
-2.0812685827552033
 10
14.4016352824578799
 20
-2.0626858275520319
 10
14.4016352824578799
 20
-2.0441030723488605
 10
14.4016352824578799
 20
-2.025520317145689
 10
14.4016352824578799
 20
-2.0069375619425172
 10
14.3830525272547085
 20
-1.9883548067393459
 10
14.3830525272547085
 20
-1.9697720515361745
 10
14.3830525272547085
 20
-1.9511892963330031
 10
14.3830525272547085
 20
-1.9326065411298314
 10
14.3830525272547085
 20
-1.91402378592666
 10
14.3830525272547085
 20
-1.8954410307234886
 10
14.3830525272547085
 20
-1.8768582755203171
 10
14.3644697720515371
 20
-1.8768582755203171
 10
14.3458870168483656
 20
-1.8768582755203171
 10
14.3273042616451942
 20
-1.8768582755203171
 10
14.3273042616451942
 20
-1.8582755203171457
 10
14.3087215064420228
 20
-1.8582755203171457
 10
14.2901387512388514
 20
-1.8396927651139743
  0
ENDSEC
  0
SECTION
  2
OBJECTS
  0
DICTIONARY
  5
C
100
AcDbDictionary
280
0
281
1
  3
ACAD_GROUP
350
D
  3
ACAD_LAYOUT
350
1A
  3
ACAD_MLINESTYLE
350
17
  3
ACAD_PLOTSETTINGS
350
19
  3
ACAD_PLOTSTYLENAME
350
E
  3
AcDbVariableDictionary
350
58
  0
DICTIONARY
  5
D
100
AcDbDictionary
280
0
281
1
  0
ACDBDICTIONARYWDFLT
  5
E
100
AcDbDictionary
281
1
  3
Normal
350
F
100
AcDbDictionaryWithDefault
340
F
  0
ACDBPLACEHOLDER
  5
F
  0
DICTIONARY
  5
17
100
AcDbDictionary
280
0
281
1
  3
Standard
350
18
  0
MLINESTYLE
  5
18
100
AcDbMlineStyle
  2
STANDARD
 70
0
  3

 62
256
 51
90.0
 52
90.0
 71
2
 49
0.5
 62
256
  6
BYLAYER
 49
-0.5
 62
256
  6
BYLAYER
  0
DICTIONARY
  5
19
100
AcDbDictionary
280
0
281
1
  0
DICTIONARY
  5
1A
100
AcDbDictionary
281
1
  3
Layout1
350
1E
  3
Layout2
350
26
  3
Model
350
22
  0
LAYOUT
  5
1E
100
AcDbPlotSettings
  1

  2
C:\Program Files\AutoCAD 2002\plotters\DWF ePlot (optimized for plotting).pc3
  4

  6

 40
0.0
 41
0.0
 42
0.0
 43
0.0
 44
0.0
 45
0.0
 46
0.0
 47
0.0
 48
0.0
 49
0.0
140
0.0
141
0.0
142
1.0
143
1.0
 70
688
 72
0
 73
0
 74
5
  7

 75
16
147
1.0
148
0.0
149
0.0
100
AcDbLayout
  1
Layout1
 70
1
 71
1
 10
0.0
 20
0.0
 11
420.0
 21
297.0
 12
0.0
 22
0.0
 32
0.0
 14
100000000000000000000.0
 24
100000000000000000000.0
 34
100000000000000000000.0
 15
-100000000000000000000.0
 25
-100000000000000000000.0
 35
-100000000000000000000.0
146
0.0
 13
0.0
 23
0.0
 33
0.0
 16
1.0
 26
0.0
 36
0.0
 17
0.0
 27
1.0
 37
0.0
 76
0
330
1B
  0
LAYOUT
  5
22
100
AcDbPlotSettings
  1

  2
C:\Program Files\AutoCAD 2002\plotters\DWF ePlot (optimized for plotting).pc3
  4

  6

 40
0.0
 41
0.0
 42
0.0
 43
0.0
 44
0.0
 45
0.0
 46
0.0
 47
0.0
 48
0.0
 49
0.0
140
0.0
141
0.0
142
1.0
143
1.0
 70
1712
 72
0
 73
0
 74
0
  7

 75
0
147
1.0
148
0.0
149
0.0
100
AcDbLayout
  1
Model
 70
1
 71
0
 10
0.0
 20
0.0
 11
12.0
 21
9.0
 12
0.0
 22
0.0
 32
0.0
 14
0.0
 24
0.0
 34
0.0
 15
0.0
 25
0.0
 35
0.0
146
0.0
 13
0.0
 23
0.0
 33
0.0
 16
1.0
 26
0.0
 36
0.0
 17
0.0
 27
1.0
 37
0.0
 76
0
330
1F
  0
LAYOUT
  5
26
100
AcDbPlotSettings
  1

  2
C:\Program Files\AutoCAD 2002\plotters\DWF ePlot (optimized for plotting).pc3
  4

  6

 40
0.0
 41
0.0
 42
0.0
 43
0.0
 44
0.0
 45
0.0
 46
0.0
 47
0.0
 48
0.0
 49
0.0
140
0.0
141
0.0
142
1.0
143
1.0
 70
688
 72
0
 73
0
 74
5
  7

 75
16
147
1.0
148
0.0
149
0.0
100
AcDbLayout
  1
Layout2
 70
1
 71
2
 10
0.0
 20
0.0
 11
12.0
 21
9.0
 12
0.0
 22
0.0
 32
0.0
 14
0.0
 24
0.0
 34
0.0
 15
0.0
 25
0.0
 35
0.0
146
0.0
 13
0.0
 23
0.0
 33
0.0
 16
1.0
 26
0.0
 36
0.0
 17
0.0
 27
1.0
 37
0.0
 76
0
330
23
  0
DICTIONARY
  5
58
100
AcDbDictionary
281
1
  3
DIMASSOC
350
5A
  3
HIDETEXT
350
59
  0
DICTIONARYVAR
  5
59
100
DictionaryVariables
280
0
  1
2
  0
DICTIONARYVAR
  5
5A
100
DictionaryVariables
280
0
  1
1
  0
ENDSEC
  0
EOF
